<svg display="none" xmlns="http://www.w3.org/2000/svg">

    <symbol id="logo" viewBox="0 0 24 24">
        <path fill="none" stroke="#62931a" stroke-width="2" d="M12,23 C18.0751322,23 23,18.0751322 23,12 C23,5.92486775 18.0751322,1 12,1 C5.92486775,1 1,5.92486775 1,12 C1,18.0751322 5.92486775,23 12,23 Z M12,23 C15,23 16,18 16,12 C16,6 15,1 12,1 C9,1 8,6 8,12 C8,18 9,23 12,23 Z M2,16 L22,16 M2,8 L22,8"/>
    </symbol>

    <symbol id="phone-icon" viewBox="0 0 53.942 53.942">
        <path d="M53.364,40.908c-2.008-3.796-8.981-7.912-9.288-8.092c-0.896-0.51-1.831-0.78-2.706-0.78c-1.301,0-2.366,0.596-3.011,1.68
	c-1.02,1.22-2.285,2.646-2.592,2.867c-2.376,1.612-4.236,1.429-6.294-0.629L17.987,24.467c-2.045-2.045-2.233-3.928-0.632-6.291
	c0.224-0.309,1.65-1.575,2.87-2.596c0.778-0.463,1.312-1.151,1.546-1.995c0.311-1.123,0.082-2.444-0.652-3.731
	c-0.173-0.296-4.291-7.27-8.085-9.277c-0.708-0.375-1.506-0.573-2.306-0.573c-1.318,0-2.558,0.514-3.49,1.445L4.7,3.986
	c-4.014,4.013-5.467,8.562-4.321,13.52c0.956,4.132,3.742,8.529,8.282,13.068l14.705,14.705c5.746,5.746,11.224,8.66,16.282,8.66
	c0,0,0,0,0.001,0c3.72,0,7.188-1.581,10.305-4.698l2.537-2.537C54.033,45.163,54.383,42.833,53.364,40.908z"/>
    </symbol>

    <symbol id="email-icon" viewBox="0 0 330.001 330.001">
        <g id="XMLID_348_">
            <path id="XMLID_350_" d="M173.871,177.097c-2.641,1.936-5.756,2.903-8.87,2.903c-3.116,0-6.23-0.967-8.871-2.903L30,84.602
		L0.001,62.603L0,275.001c0.001,8.284,6.716,15,15,15L315.001,290c8.285,0,15-6.716,15-14.999V62.602l-30.001,22L173.871,177.097z"
            />
            <polygon id="XMLID_351_" points="165.001,146.4 310.087,40.001 19.911,40 	"/>
        </g>
    </symbol>

    <symbol id="signin-icon" viewBox="0 0 256 256">
        <path d="M144.48633,136.48438l-41.98926,42a12.0001,12.0001,0,0,1-16.97266-16.96875L107.03467,140H24a12,12,0,0,1,0-24h83.03467L85.52441,94.48438a12.0001,12.0001,0,0,1,16.97266-16.96875l41.98926,42A12.00093,12.00093,0,0,1,144.48633,136.48438ZM192,28H136a12,12,0,0,0,0,24h52V204H136a12,12,0,0,0,0,24h56a20.02229,20.02229,0,0,0,20-20V48A20.02229,20.02229,0,0,0,192,28Z"/>

    </symbol>

    <symbol id="register-icon" viewBox="0 0 24 24">
        <path d="M12 11.796C14.7189 11.796 16.9231 9.60308 16.9231 6.89801C16.9231 4.19294 14.7189 2.00005 12 2.00005C9.28106 2.00005 7.07692 4.19294 7.07692 6.89801C7.07692 9.60308 9.28106 11.796 12 11.796Z" />
        <path d="M14.5641 13.8369H9.4359C6.46154 13.8369 4 16.2859 4 19.245C4 19.9593 4.30769 20.5716 4.92308 20.8777C5.84615 21.3879 7.89744 22.0001 12 22.0001C16.1026 22.0001 18.1538 21.3879 19.0769 20.8777C19.5897 20.5716 20 19.9593 20 19.245C20 16.1838 17.5385 13.8369 14.5641 13.8369Z"/>
    </symbol>

    <symbol id="logout-icon" viewBox="0 0 320.002 320.002">
        <g id="XMLID_6_">
            <path id="XMLID_7_" d="M51.213,175.001h173.785c8.284,0,15-6.716,15-15c0-8.284-6.716-15-15-15H51.213l19.394-19.394
		c5.858-5.858,5.858-15.355,0-21.213c-5.857-5.858-15.355-5.858-21.213,0L4.396,149.393c-0.351,0.351-0.683,0.719-0.997,1.103
		c-0.137,0.167-0.256,0.344-0.385,0.515c-0.165,0.22-0.335,0.435-0.488,0.664c-0.14,0.209-0.261,0.426-0.389,0.64
		c-0.123,0.206-0.252,0.407-0.365,0.619c-0.118,0.22-0.217,0.446-0.323,0.67c-0.104,0.219-0.213,0.435-0.306,0.659
		c-0.09,0.219-0.164,0.442-0.243,0.664c-0.087,0.24-0.179,0.477-0.253,0.722c-0.067,0.222-0.116,0.447-0.172,0.672
		c-0.063,0.249-0.133,0.497-0.183,0.751c-0.051,0.259-0.082,0.521-0.119,0.782c-0.032,0.223-0.075,0.443-0.097,0.669
		c-0.048,0.484-0.073,0.971-0.074,1.457c0,0.007-0.001,0.015-0.001,0.022c0,0.007,0.001,0.015,0.001,0.022
		c0.001,0.487,0.026,0.973,0.074,1.458c0.022,0.223,0.064,0.44,0.095,0.661c0.038,0.264,0.069,0.528,0.121,0.79
		c0.05,0.252,0.119,0.496,0.182,0.743c0.057,0.227,0.107,0.456,0.175,0.681c0.073,0.241,0.164,0.474,0.248,0.71
		c0.081,0.226,0.155,0.453,0.247,0.675c0.091,0.22,0.198,0.431,0.3,0.646c0.108,0.229,0.21,0.46,0.33,0.685
		c0.11,0.205,0.235,0.4,0.354,0.599c0.131,0.221,0.256,0.444,0.4,0.659c0.146,0.219,0.309,0.424,0.466,0.635
		c0.136,0.181,0.262,0.368,0.407,0.544c0.299,0.364,0.616,0.713,0.947,1.048c0.016,0.016,0.029,0.034,0.045,0.05l45,45.001
		c2.93,2.929,6.768,4.394,10.607,4.394c3.838-0.001,7.678-1.465,10.606-4.393c5.858-5.858,5.858-15.355,0.001-21.213L51.213,175.001
		z"/>
            <path id="XMLID_8_" d="M305.002,25h-190c-8.284,0-15,6.716-15,15v60c0,8.284,6.716,15,15,15s15-6.716,15-15V55h160v210.001h-160
		v-45.001c0-8.284-6.716-15-15-15s-15,6.716-15,15v60.001c0,8.284,6.716,15,15,15h190c8.284,0,15-6.716,15-15V40
		C320.002,31.716,313.286,25,305.002,25z"/>
        </g>
    </symbol>

    <symbol id="developer-icon" viewBox="0 0 419.931 419.931">
        <g>
            <g>
                <g>
                    <path d="M282.895,352.367c-2.176-1.324-4.072-3.099-5.579-5.25c-0.696-0.992-1.284-2.041-1.771-3.125H28.282V100.276h335.624
				v159.138c7.165,0.647,13.177,5.353,15.701,11.797c2.235-1.225,4.726-1.982,7.344-2.213c1.771-0.154,3.53-0.044,5.236,0.293
				V39.561c0-12.996-10.571-23.569-23.566-23.569H23.568C10.573,15.992,0,26.565,0,39.561v309.146
				c0,12.996,10.573,23.568,23.568,23.568h257.179c-2.007-4.064-2.483-8.652-1.302-13.066
				C280.126,356.67,281.304,354.354,282.895,352.367z M338.025,55.569c0-4.806,3.896-8.703,8.702-8.703h8.702
				c4.807,0,8.702,3.896,8.702,8.703v9.863c0,4.806-3.896,8.702-8.702,8.702h-8.702c-4.807,0-8.702-3.896-8.702-8.702V55.569z
				 M297.56,55.569c0-4.806,3.896-8.703,8.702-8.703h8.703c4.807,0,8.702,3.896,8.702,8.703v9.863c0,4.806-3.896,8.702-8.702,8.702
				h-8.703c-4.806,0-8.702-3.896-8.702-8.702V55.569z M257.094,55.569c0-4.806,3.897-8.703,8.702-8.703h8.702
				c4.807,0,8.703,3.896,8.703,8.703v9.863c0,4.806-3.896,8.702-8.703,8.702h-8.702c-4.805,0-8.702-3.896-8.702-8.702V55.569z"/>
                    <path d="M419.875,335.77l-2.615-14.83c-0.353-1.997-2.256-3.331-4.255-2.979l-13.188,2.324c-1.583-3.715-3.605-7.195-6.005-10.38
				l8.614-10.268c0.626-0.744,0.931-1.709,0.847-2.68c-0.086-0.971-0.554-1.867-1.3-2.494l-11.534-9.68
				c-0.746-0.626-1.713-0.93-2.683-0.845c-0.971,0.085-1.867,0.552-2.493,1.298l-8.606,10.26c-3.533-1.8-7.312-3.188-11.271-4.104
				v-13.392c0-2.028-1.645-3.674-3.673-3.674h-15.06c-2.027,0-3.673,1.646-3.673,3.674v13.392
				c-3.961,0.915-7.736,2.304-11.271,4.104l-8.608-10.259c-1.304-1.554-3.62-1.756-5.175-0.453l-11.535,9.679
				c-0.746,0.627-1.213,1.523-1.299,2.494c-0.084,0.971,0.22,1.937,0.846,2.683l8.615,10.266c-2.396,3.184-4.422,6.666-6.005,10.38
				l-13.188-2.325c-1.994-0.351-3.901,0.982-4.255,2.979l-2.614,14.83c-0.169,0.959,0.05,1.945,0.607,2.744
				c0.561,0.799,1.41,1.342,2.37,1.511l13.198,2.326c0.215,4.089,0.927,8.045,2.073,11.812l-11.6,6.695
				c-0.844,0.485-1.459,1.289-1.712,2.229c-0.252,0.941-0.119,1.943,0.367,2.787l7.529,13.041c0.485,0.844,1.289,1.459,2.229,1.711
				c0.313,0.084,0.632,0.125,0.951,0.125c0.639,0,1.272-0.166,1.836-0.492l11.609-6.703c2.73,2.925,5.812,5.517,9.18,7.709
				l-4.584,12.593c-0.332,0.916-0.289,1.926,0.123,2.809s1.157,1.566,2.072,1.898l14.148,5.149c0.406,0.148,0.832,0.224,1.257,0.224
				c0.53,0,1.063-0.115,1.554-0.345c0.883-0.411,1.564-1.157,1.897-2.073l4.583-12.593c1.965,0.238,3.965,0.361,5.994,0.361
				s4.029-0.125,5.994-0.361l4.584,12.593c0.332,0.916,1.016,1.662,1.897,2.073c0.49,0.229,1.021,0.345,1.554,0.345
				c0.424,0,0.85-0.074,1.256-0.224l14.15-5.149c0.913-0.332,1.659-1.017,2.07-1.898c0.412-0.883,0.456-1.893,0.123-2.809
				l-4.584-12.591c3.365-2.192,6.447-4.786,9.18-7.709l11.609,6.703c0.563,0.324,1.197,0.492,1.836,0.492
				c0.318,0,0.64-0.043,0.951-0.125c0.941-0.252,1.743-0.869,2.229-1.711l7.529-13.043c0.486-0.842,0.619-1.846,0.367-2.787
				c-0.253-0.938-0.868-1.742-1.712-2.229l-11.598-6.693c1.146-3.768,1.856-7.724,2.071-11.812l13.198-2.327
				c0.96-0.169,1.812-0.712,2.37-1.511C419.825,337.715,420.044,336.729,419.875,335.77z M354.184,359.336
				c-11.155,0-20.2-9.045-20.2-20.201s9.046-20.2,20.2-20.2c11.156,0,20.201,9.044,20.201,20.2S365.34,359.336,354.184,359.336z"/>
                    <g>
                        <path d="M164.695,235.373c0-4.752-2.785-9.117-7.096-11.119l-39.455-18.332l39.456-18.334c4.31-2.004,7.095-6.368,7.095-11.118
					v-0.319c0-4.21-2.119-8.075-5.665-10.334c-1.962-1.253-4.247-1.916-6.606-1.916c-1.778,0-3.563,0.391-5.16,1.133l-63.078,29.333
					c-4.309,2.004-7.092,6.368-7.092,11.117v0.877c0,4.743,2.782,9.104,7.093,11.118l63.084,29.336
					c1.631,0.755,3.368,1.138,5.162,1.138c2.338,0,4.616-0.664,6.597-1.924c3.548-2.268,5.666-6.13,5.666-10.335L164.695,235.373
					L164.695,235.373z"/>
                        <path d="M226.932,134.012c-2.301-3.15-6.002-5.03-9.901-5.03h-0.314c-5.354,0-10.048,3.425-11.679,8.516L163.478,266.27
					c-1.183,3.718-0.517,7.813,1.781,10.962c2.301,3.148,6.002,5.029,9.901,5.029h0.315c5.352,0,10.043-3.426,11.672-8.516
					l41.555-128.762C229.896,141.268,229.234,137.167,226.932,134.012z"/>
                        <path d="M308.001,194.366l-63.079-29.333c-1.592-0.74-3.374-1.131-5.152-1.131c-2.358,0-4.644,0.661-6.605,1.912
					c-3.552,2.263-5.671,6.127-5.671,10.337v0.319c0,4.746,2.783,9.111,7.097,11.123l39.454,18.33l-39.455,18.331
					c-4.311,2.002-7.096,6.367-7.096,11.119v0.321c0,4.205,2.119,8.066,5.669,10.336c1.974,1.258,4.254,1.923,6.595,1.923
					c1.792,0,3.527-0.383,5.169-1.141l63.082-29.336c4.307-2.009,7.088-6.371,7.088-11.114v-0.877
					C315.094,200.735,312.311,196.371,308.001,194.366z"/>
                    </g>
                </g>
            </g>
        </g>
    </symbol>

    <symbol id="government-icon" viewBox="0 0 50 50">
        <path d="M7.743 21.8h3.485v22.4h5.229v-19.2h5.229v19.2h5.228v-19.2h5.23v19.2h5.229v-22.4h3.484c.963 0 1.744-.716 1.744-1.6 0-.534-.288-1.004-.727-1.294l.003-.003-.026-.015-.045-.027-16.635-8.609v-2.522c3.072 1.412 5.601-1.02 9.585.442v-5.571c-3.986-1.462-6.514.968-9.585-.443v-.358c0-.443-.389-.8-.871-.8s-.87.357-.87.8v8.452l-16.635 8.607-.045.027-.025.017v.003c-.437.29-.724.761-.724 1.294-.001.884.78 1.6 1.742 1.6zm1.742 24.001l-3.485 3.199h36.602l-3.487-3.199z"/>
    </symbol>

    <symbol id="medical-icon" viewBox="0 0 229.163 229.162">
        <g>
            <g>
                <path d="M145.631,21.769H83.534c-1.49,0-2.7,1.21-2.7,2.7v22.853H47.25H13.5c-7.441,0-13.5,6.059-13.5,13.5v133.072
			c0,7.436,6.059,13.5,13.5,13.5h33.75h134.667h33.745c7.456,0,13.5-6.064,13.5-13.5V60.821c0-7.441-6.044-13.5-13.5-13.5h-33.75
			h-33.581V24.469C148.332,22.974,147.124,21.769,145.631,21.769z M86.234,27.169h56.697v20.152H86.234V27.169z M5.4,193.894V60.821
			c0-4.467,3.636-8.1,8.1-8.1h20.25v149.273H13.5C9.042,201.994,5.4,198.355,5.4,193.894z M223.768,60.821v133.072
			c0,4.462-3.645,8.101-8.101,8.101h-19.923V52.721h19.918C220.124,52.721,223.768,56.354,223.768,60.821z M179.217,201.994H49.95
			V52.721h33.584h62.098h33.586V201.994L179.217,201.994z"/>
                <path d="M125.36,95.41c0-1.493-1.207-2.7-2.7-2.7h-16.155c-1.49,0-2.7,1.207-2.7,2.7v21.167H82.637c-1.49,0-2.7,1.208-2.7,2.697
			v16.152c0,1.482,1.21,2.7,2.7,2.7h21.168v21.184c0,1.481,1.21,2.7,2.7,2.7h16.155c1.493,0,2.7-1.219,2.7-2.7v-21.184h21.179
			c1.486,0,2.699-1.218,2.699-2.7v-16.152c0-1.489-1.213-2.697-2.699-2.697H125.36V95.41z"/>
            </g>
        </g>
    </symbol>

    <symbol id="education-icon" viewBox="0 0 52 52">
        <g display="none">
            <path display="inline" opacity="0.2" d="M0,0v52h52V0H0z M49.9,49.9H2.1V2.1h47.8
		C49.9,2.1,49.9,49.9,49.9,49.9z"/>
        </g>
        <g display="none">
            <rect x="2" y="2" display="inline" fill="none" stroke-width="0.25" stroke-miterlimit="10" width="48" height="48"/>
        </g>
        <g display="none">
            <g display="inline" opacity="0.5">
                <line fill="none" stroke-width="0.25" stroke-miterlimit="10" x1="50" y1="2" x2="2" y2="50"/>
                <line fill="none" stroke-width="0.25" stroke-miterlimit="10" x1="2" y1="2" x2="49.9" y2="50"/>
                <rect x="2" y="2" fill="none" stroke-width="0.25" stroke-miterlimit="10" width="2" height="48"/>
                <rect x="4" y="2" fill="none" stroke-width="0.25" stroke-miterlimit="10" width="2" height="48"/>
                <rect x="6" y="2" fill="none" stroke-width="0.25" stroke-miterlimit="10" width="2" height="48"/>
                <rect x="8" y="2" fill="none" stroke-width="0.25" stroke-miterlimit="10" width="2" height="48"/>
                <rect x="10" y="2" fill="none" stroke-width="0.25" stroke-miterlimit="10" width="2" height="48"/>
                <rect x="12" y="2" fill="none" stroke-width="0.25" stroke-miterlimit="10" width="2" height="48"/>
                <rect x="14" y="2" fill="none" stroke-width="0.25" stroke-miterlimit="10" width="2" height="48"/>
                <rect x="16" y="2" fill="none" stroke-width="0.25" stroke-miterlimit="10" width="2" height="48"/>
                <rect x="18" y="2" fill="none" stroke-width="0.25" stroke-miterlimit="10" width="2" height="48"/>
                <rect x="20" y="2" fill="none" stroke-width="0.25" stroke-miterlimit="10" width="2" height="48"/>
                <rect x="22" y="2" fill="none" stroke-width="0.25" stroke-miterlimit="10" width="2" height="48"/>
                <rect x="24" y="2" fill="none" stroke-width="0.25" stroke-miterlimit="10" width="2" height="48"/>
                <rect x="26" y="2" fill="none" stroke-width="0.25" stroke-miterlimit="10" width="2" height="48"/>
                <rect x="28" y="2" fill="none" stroke-width="0.25" stroke-miterlimit="10" width="2" height="48"/>
                <rect x="30" y="2" fill="none" stroke-width="0.25" stroke-miterlimit="10" width="2" height="48"/>
                <rect x="32" y="2" fill="none" stroke-width="0.25" stroke-miterlimit="10" width="2" height="48"/>
                <rect x="34" y="2" fill="none" stroke-width="0.25" stroke-miterlimit="10" width="2" height="48"/>
                <rect x="36" y="2" fill="none" stroke-width="0.25" stroke-miterlimit="10" width="2" height="48"/>
                <rect x="38" y="2" fill="none" stroke-width="0.25" stroke-miterlimit="10" width="2" height="48"/>
                <rect x="40" y="2" fill="none" stroke-width="0.25" stroke-miterlimit="10" width="2" height="48"/>
                <rect x="42" y="2" fill="none" stroke-width="0.25" stroke-miterlimit="10" width="2" height="48"/>
                <rect x="44" y="2" fill="none" stroke-width="0.25" stroke-miterlimit="10" width="2" height="48"/>
                <rect x="46" y="2" fill="none" stroke-width="0.25" stroke-miterlimit="10" width="2" height="48"/>
                <rect x="48" y="2" fill="none" stroke-width="0.25" stroke-miterlimit="10" width="2" height="48"/>
                <rect x="2" y="48" fill="none" stroke-width="0.25" stroke-miterlimit="10" width="48" height="2"/>
                <rect x="2" y="46" fill="none" stroke-width="0.25" stroke-miterlimit="10" width="48" height="2"/>
                <rect x="2" y="44" fill="none" stroke-width="0.25" stroke-miterlimit="10" width="48" height="2"/>
                <rect x="2" y="42" fill="none" stroke-width="0.25" stroke-miterlimit="10" width="48" height="2"/>
                <rect x="2" y="40" fill="none" stroke-width="0.25" stroke-miterlimit="10" width="48" height="2"/>
                <rect x="2" y="38" fill="none" stroke-width="0.25" stroke-miterlimit="10" width="48" height="2"/>
                <rect x="2" y="36" fill="none" stroke-width="0.25" stroke-miterlimit="10" width="48" height="2"/>
                <rect x="2" y="34" fill="none" stroke-width="0.25" stroke-miterlimit="10" width="48" height="2"/>
                <rect x="2" y="32" fill="none" stroke-width="0.25" stroke-miterlimit="10" width="48" height="2"/>
                <rect x="2" y="30" fill="none" stroke-width="0.25" stroke-miterlimit="10" width="48" height="2"/>
                <rect x="2" y="28" fill="none" stroke-width="0.25" stroke-miterlimit="10" width="48" height="2"/>
                <rect x="2" y="26" fill="none" stroke-width="0.25" stroke-miterlimit="10" width="48" height="2"/>
                <rect x="2" y="24" fill="none" stroke-width="0.25" stroke-miterlimit="10" width="48" height="2"/>
                <rect x="2" y="22" fill="none" stroke-width="0.25" stroke-miterlimit="10" width="48" height="2"/>
                <rect x="2" y="20" fill="none" stroke-width="0.25" stroke-miterlimit="10" width="48" height="2"/>
                <rect x="2" y="18" fill="none" stroke-width="0.25" stroke-miterlimit="10" width="48" height="2"/>
                <rect x="2" y="16" fill="none" stroke-width="0.25" stroke-miterlimit="10" width="48" height="2"/>
                <rect x="2" y="14" fill="none" stroke-width="0.25" stroke-miterlimit="10" width="48" height="2"/>
                <rect x="2" y="12" fill="none" stroke-width="0.25" stroke-miterlimit="10" width="48" height="2"/>
                <rect x="2" y="10" fill="none" stroke-width="0.25" stroke-miterlimit="10" width="48" height="2"/>
                <rect x="2" y="8" fill="none" stroke-width="0.25" stroke-miterlimit="10" width="48" height="2"/>
                <rect x="2" y="6" fill="none" stroke-width="0.25" stroke-miterlimit="10" width="48" height="2"/>
                <rect x="2" y="4" fill="none" stroke-width="0.25" stroke-miterlimit="10" width="48" height="2"/>
                <rect x="2" y="2" fill="none" stroke-width="0.25" stroke-miterlimit="10" width="48" height="2"/>
            </g>
        </g>
        <g>
            <path d="M25.8,26.7c-1.2,0.1-2.3-0.4-3.5-0.8c-6.3-2.1-12.7-4.2-19-6.3c-0.4-0.2-0.7-0.3-1-0.6
		c-0.4-0.3-0.4-0.7,0-1c0.3-0.2,0.7-0.5,1.1-0.6c6.8-2,13.5-4,20.3-6.1c1.5-0.5,3.1-0.5,4.7,0c6.7,2,13.4,4,20.1,6
		c0.4,0.2,0.8,0.3,1.2,0.6c0.5,0.3,0.5,0.8,0,1.1c-0.3,0.2-0.6,0.4-1,0.5C42,21.7,35.3,24,28.5,26.2C27.6,26.6,26.8,26.7,25.8,26.7z
		"/>
            <path d="M12.5,27c-1-0.2-1.2,0.4-1.2,0.9c0,2.6,0,5.1,0,7.6c0,0.9,0.3,1.4,0.9,2c0.2,0.2,0.5,0.4,0.7,0.6
		c1.6,1.1,3.5,1.8,5.4,2.3c3.8,1,7.6,1.2,11.5,0.7c2.5-0.3,5-1,7.3-2c1-0.5,2-1,2.7-1.8c0.5-0.5,0.7-1,0.6-1.7
		c0.1-2.4,0.1-4.9,0.1-7.4c0-1.4-1-1.2-1.4-1.1c-3.5,1.2-7.2,2.3-10.7,3.5c-1.8,0.6-3.5,0.6-5.2,0L12.5,27z"/>
            <path d="M45.9,24.7c-0.3,0.1-0.4,0.2-0.4,0.6c0,2.3,0,4.5,0,6.8c0,0.2-0.1,0.5-0.2,0.7c-0.5,1.2-1,2.4-1.4,3.6
		c-0.4,1.1-0.2,2.3,0.6,3.1c0.2,0.3,0.6,0.6,0.9,0.8c0.3,0.3,0.8,0.4,1.2,0.5c0.7,0.1,1.3-0.3,1.8-0.7c0.2-0.2,0.5-0.4,0.7-0.7
		c0.6-0.8,0.7-1.8,0.5-2.7c-0.3-1.4-0.9-2.6-1.5-3.8c-0.2-0.2-0.2-0.6-0.2-0.8c0-2.5,0-4.9,0-7.4c0-0.5-0.4-0.4-0.6-0.3L45.9,24.7z"
            />
        </g>
    </symbol>

    <symbol id="mechanic-icon" viewBox="0 0 512 512">
        <path d="M241.406 21l-15.22 34.75c-7.864.478-15.703 1.472-23.467 2.97l-23.282-30.064-25.094 8.532-.125 38.25c-10.63 5.464-20.817 12.07-30.44 19.78L88.313 79.25 70.156 98.563 88.312 133c-5.852 8.346-10.925 17.072-15.218 26.094l-38.938 1.062-7.906 25.28 31.438 23.158c-1.505 9.38-2.24 18.858-2.282 28.344L20.5 254.625l3.656 26.25 38.313 7.5c2.284 7.982 5.107 15.826 8.5 23.5L45.72 343.22l14.093 22.436 39.25-9.187c2.47 2.895 5.037 5.757 7.718 8.53 5.643 5.835 11.565 11.206 17.72 16.125l-7.625 39.313 22.938 13.25 29.968-26.094c8.606 3.462 17.435 6.23 26.407 8.312l9.782 38.406 26.405 2.157 15.875-36.22c10.97-.66 21.904-2.3 32.656-4.938l25.22 29.22 24.593-9.844-.72-14.813-57.406-43.53c-16.712 4.225-34.042 5.356-51.063 3.436-31.754-3.58-62.27-17.92-86.218-42.686-54.738-56.614-53.173-146.67 3.438-201.406 27.42-26.513 62.69-39.963 98-40.344 37.59-.406 75.214 13.996 103.438 43.187 45.935 47.512 52.196 118.985 19.562 173.095l31.97 24.25c3.997-6.28 7.594-12.75 10.75-19.375l38.655-1.063 7.906-25.28-31.217-23c1.513-9.457 2.262-19.035 2.28-28.594l34.688-17.625-3.655-26.25-38.28-7.5c-3.196-10.993-7.444-21.762-12.75-32.125l22.81-31.594-15.25-21.657-37.56 10.906c-.472-.5-.93-1.007-1.408-1.5-5.998-6.205-12.33-11.89-18.937-17.064l7.188-37.125L334 43.78l-28.5 24.814c-9.226-3.713-18.702-6.603-28.313-8.75l-9.343-36.688L241.406 21zM183.25 174.5c-10.344.118-20.597 2.658-30 7.28l45.22 34.314c13.676 10.376 17.555 30.095 7.06 43.937-10.498 13.85-30.656 15.932-44.53 5.408l-45.188-34.282c-4.627 24.793 4.135 51.063 25.594 67.344 19.245 14.597 43.944 17.33 65.22 9.688l4.78-1.72 4.03 3.063 135.19 102.564 4.03 3.062-.344 5.063c-1.637 22.55 7.59 45.61 26.844 60.217 21.46 16.28 49.145 17.63 71.78 6.5l-45.186-34.28c-13.874-10.526-17.282-30.506-6.78-44.344 10.5-13.84 30.537-15.405 44.217-5.032l45.188 34.283c4.616-24.784-4.11-51.067-25.563-67.344-19.313-14.658-43.817-17.562-64.968-10.033l-4.75 1.688-4.03-3.063-135.19-102.562-4.03-3.063.344-5.03c1.55-22.387-7.85-45.194-27.157-59.845-12.544-9.516-27.222-13.978-41.78-13.812zm43.563 90.25l163.875 124.344L379.406 404 215.5 279.625l11.313-14.875z"/>
    </symbol>

    <symbol id="plumber-icon" viewBox="0 0 465.757 465.757">
        <g>
            <path d="M457.618,402.336L297.86,242.579l89.103-89.103c8.302-8.301,18.789-14.653,30.324-18.371
		c9.347-3.004,17.622-8.064,24.596-15.04c11.884-11.883,18.283-27.683,18.02-44.488c-0.265-16.808-7.173-32.415-19.454-43.948
		c-1.509-1.416-3.64-1.955-5.635-1.428c-1.998,0.526-3.586,2.043-4.201,4.017l-10.479,33.619
		c-3.049,9.771-13.479,15.239-23.256,12.189c-7.798-2.434-13.037-9.552-13.037-17.712c0-1.865,0.285-3.727,0.848-5.532l10.37-33.23
		c0.619-1.985,0.167-4.149-1.195-5.719c-1.362-1.57-3.44-2.325-5.493-1.991c-11.401,1.85-21.976,6.824-30.581,14.386
		c-15.127,13.302-22.828,33.175-20.601,53.162c2.449,21.952-5.368,43.759-21.449,59.832l-58.619,58.618l-9.514-9.514l-14.763-33.971
		c-0.3-0.69-0.728-1.318-1.261-1.851l-74.533-74.535c-1.126-1.125-2.652-1.757-4.243-1.757s-3.117,0.632-4.242,1.757L92.702,137.83
		l-25.827-25.827l56.925-56.925c2.344-2.343,2.344-6.142,0-8.485L98.035,20.828c-2.153-2.154-5.583-2.353-7.972-0.457L11.065,83.062
		C4.601,88.029,0.591,95.544,0.06,103.678c-0.531,8.135,2.471,16.106,8.235,21.871l18.275,18.274
		c1.171,1.171,2.707,1.757,4.242,1.757c1.535,0,3.071-0.586,4.242-1.757l4.243-4.243l25.827,25.827l-4.243,4.243
		c-2.344,2.343-2.344,6.142-0.001,8.485l31.819,31.82c2.343,2.343,6.143,2.344,8.485,0l9.193-9.193l19.8,19.8l-9.192,9.192
		c-2.344,2.343-2.344,6.142-0.001,8.485l5.426,5.426c8.916,8.916,22.2,11.41,33.6,6.73l13.249,13.25
		c1.126,1.125,2.651,1.757,4.243,1.757s3.117-0.632,4.243-1.757l14.142-14.142c2.343-2.343,2.343-6.142,0-8.485l-7.171-7.172
		l13.338-7.874l15.466,15.466l-70.783,70.784c-8.302,8.301-18.789,14.653-30.326,18.371c-9.209,2.964-17.713,8.167-24.596,15.049
		c-11.885,11.886-18.283,27.688-18.018,44.495c0.267,16.805,7.176,32.407,19.455,43.933c1.507,1.415,3.638,1.953,5.633,1.428
		c1.998-0.526,3.586-2.043,4.201-4.015l10.489-33.611c1.477-4.733,4.708-8.607,9.098-10.909c4.391-2.303,9.414-2.757,14.148-1.28
		c7.798,2.434,13.037,9.552,13.037,17.712c0,1.865-0.285,3.727-0.849,5.534l-10.36,33.23c-0.619,1.986-0.165,4.15,1.199,5.721
		c1.149,1.323,2.808,2.065,4.529,2.065c0.321,0,0.646-0.026,0.968-0.079c11.399-1.864,21.968-6.841,30.563-14.394
		c15.14-13.302,22.841-33.173,20.603-53.153c-2.448-21.94,5.371-43.753,21.449-59.842l40.299-40.299l159.311,159.311
		c5.653,5.653,13.02,8.506,20.347,8.506c6.746,0,13.458-2.419,18.768-7.3c5.683-5.225,8.901-12.352,9.063-20.068
		C465.912,414.948,463.024,407.743,457.618,402.336z M324.222,151.707c18.675-18.665,27.748-44.051,24.892-69.648
		c-1.794-16.095,4.411-32.103,16.598-42.818c4.331-3.807,9.289-6.797,14.646-8.866l-7.126,22.835
		c-0.924,2.965-1.392,6.028-1.392,9.104c0,13.44,8.625,25.161,21.463,29.167c16.095,5.021,33.267-3.983,38.286-20.072l7.295-23.403
		c5.711,8.071,8.86,17.646,9.019,27.76c0.213,13.529-4.938,26.248-14.506,35.815c-5.613,5.614-12.269,9.685-19.786,12.102
		c-13.344,4.299-25.492,11.667-35.133,21.308l-89.103,89.104l-23.77-23.77L324.222,151.707z M16.781,117.063
		c-3.322-3.322-5.052-7.916-4.746-12.604c0.306-4.688,2.617-9.019,6.416-11.939l74.882-59.424l17.739,17.74l-80.259,80.259
		L16.781,117.063z M47.783,131.095l10.607-10.607l25.827,25.827L73.61,156.922L47.783,131.095z M118.864,192.277l5.658-5.657
		l19.799,19.799l-5.657,5.657L118.864,192.277z M152.806,197.934l-19.799-19.799l10.607-10.607l19.799,19.799L152.806,197.934z
		 M183.161,245.26l-5.656,5.657l-6.571-6.572l7.113-4.199L183.161,245.26z M209.476,313.992
		c-18.672,18.684-27.743,44.072-24.889,69.659c1.803,16.087-4.402,32.089-16.598,42.805c-4.327,3.803-9.281,6.793-14.637,8.865
		l7.116-22.824c0.924-2.965,1.392-6.028,1.392-9.104c0-13.44-8.625-25.161-21.463-29.167c-16.09-5.018-33.257,3.985-38.275,20.07
		l-7.303,23.401c-5.712-8.066-8.861-17.639-9.021-27.751c-0.215-13.531,4.937-26.251,14.504-35.82
		c5.62-5.62,12.277-9.694,19.788-12.112c13.344-4.299,25.492-11.667,35.133-21.308l70.784-70.784l23.77,23.77L209.476,313.992z
		 M448.566,433.86c-6.219,5.717-16.315,5.334-22.508-0.858L207.253,214.197c-1.156-1.156-2.692-1.757-4.244-1.757
		c-1.046,0-2.1,0.273-3.049,0.833l-42.047,24.823c-7.438,4.394-16.903,3.194-23.016-2.916l-1.183-1.183l42.426-42.427
		c2.344-2.343,2.344-6.142,0-8.485L147.856,154.8c-2.342-2.343-6.143-2.343-8.484,0l-42.428,42.426L73.61,173.892l79.196-79.196
		l69.485,69.486l14.763,33.971c0.3,0.691,0.728,1.319,1.261,1.852l210.817,210.817c3.072,3.072,4.713,7.175,4.621,11.553
		C453.661,426.791,451.818,430.87,448.566,433.86z"/>
            <circle cx="438.141" cy="421.763" r="8"/>
        </g>
    </symbol>

    <symbol id="translator-icon" viewBox="0 0 512 512">
        <g>
            <g>
                <path d="M477.488,125.53l-17.103-59.858c-0.982-3.441-4.128-5.814-7.708-5.814h-8.551c-3.58,0-6.725,2.373-7.708,5.814
			l-17.102,59.858c-1.216,4.257,1.248,8.694,5.506,9.911c4.258,1.215,8.694-1.247,9.911-5.506l3.225-11.288h20.889l3.225,11.289
			c1.006,3.521,4.216,5.816,7.705,5.816c0.729,0,1.471-0.101,2.206-0.311C476.238,134.224,478.704,129.787,477.488,125.53z
			 M442.537,102.614l5.864-20.523l5.864,20.523H442.537z"/>
            </g>
        </g>
        <g>
            <g>
                <path d="M478.33,17.102h-46.402c0.13-3.659-0.966-7.267-3.209-10.328C425.564,2.469,420.693,0,415.355,0h-99.497
			c-18.566,0-33.67,15.105-33.67,33.67v94.063c0,15.805,10.945,29.101,25.653,32.706v35.703c0,3.242,1.953,6.166,4.949,7.406
			c0.992,0.41,2.033,0.61,3.067,0.61c2.086,0,4.137-0.815,5.67-2.348l40.406-40.407h8.877c-0.13,3.659,0.966,7.267,3.209,10.328
			c3.155,4.305,8.026,6.775,13.363,6.775h90.947c18.566,0,33.67-15.105,33.67-33.67V50.772C512,32.207,496.895,17.102,478.33,17.102
			z M375.242,145.37h-16.628c-2.126,0-4.165,0.844-5.668,2.348l-29.071,29.071v-23.402c0-4.427-3.589-8.017-8.017-8.017
			c-9.725,0-17.637-7.912-17.637-17.637V33.67c0-9.725,7.912-17.637,17.637-17.637h99.497c0.088,0,0.27,0,0.431,0.218
			c0.16,0.219,0.106,0.393,0.079,0.477l-27.483,87.031c-0.36-0.215-0.735-0.413-1.136-0.573
			c-6.798-2.718-12.732-6.302-17.792-10.704c9-12.476,12.331-25.564,13.56-33.694h9.805c4.427,0,8.017-3.589,8.017-8.017
			c0-4.427-3.589-8.017-8.017-8.017H366.63v-0.534c0-4.427-3.589-8.017-8.017-8.017s-8.017,3.589-8.017,8.017v0.534h-26.188
			c-4.427,0-8.017,3.589-8.017,8.017s3.589,8.017,8.017,8.017h42.318c-1.075,5.501-3.35,13.164-8.132,20.872
			c-1.283-2.081-2.46-4.255-3.505-6.544c-1.839-4.029-6.597-5.8-10.623-3.961c-4.028,1.84-5.801,6.596-3.961,10.623
			c2.051,4.492,4.504,8.695,7.321,12.596c-4.735,4.155-10.583,7.907-17.845,10.812c-4.111,1.645-6.11,6.31-4.466,10.421
			c1.254,3.135,4.264,5.042,7.446,5.042c0.991,0,1.999-0.185,2.975-0.575c9.268-3.708,16.734-8.477,22.757-13.761
			c6.486,5.704,14.058,10.345,22.595,13.761c0.788,0.314,1.595,0.49,2.399,0.548L375.242,145.37z M495.967,144.835
			c0,9.725-7.912,17.637-17.637,17.637h-90.946c-0.088,0-0.27,0-0.431-0.219c-0.159-0.219-0.105-0.392-0.078-0.477l40.622-128.64
			h50.832c9.725,0,17.637,7.912,17.637,17.637V144.835z"/>
            </g>
        </g>
        <g>
            <g>
                <path d="M328.274,411.931l-74.947-23.06c-3.836-1.18-6.413-4.67-6.413-8.684v-29.22l4.365-3.637
			c7.842-6.535,13.049-15.686,14.662-25.765l0.998-6.24h6.162c13.851,0,25.119-11.268,25.119-25.119v-17.102
			c0-12.298-8.886-22.554-20.574-24.699l7.798-48.738c3.541-22.133-2.768-44.607-17.312-61.662
			c-14.543-17.055-35.739-26.839-58.153-26.839h-61.88c-22.415,0-43.611,9.781-58.154,26.837
			c-14.543,17.055-20.853,39.531-17.312,61.662l7.798,48.738c-11.687,2.146-20.573,12.402-20.573,24.7v17.102
			c0,13.851,11.268,25.119,25.119,25.119h6.162l0.998,6.24c1.613,10.08,6.82,19.229,14.662,25.765l4.365,3.638v29.219
			c0,4.014-2.577,7.505-6.413,8.684l-74.947,23.06C11.978,417.417,0,433.634,0,452.285v34.596C0,500.732,11.268,512,25.119,512
			H332.96c13.851,0,25.119-11.268,25.119-25.119v-34.596C358.079,433.634,346.101,417.417,328.274,411.931z M282.188,273.102v17.102
			c0,5.01-4.076,9.086-9.086,9.086h-3.597l5.606-35.042C279.158,265.167,282.188,268.784,282.188,273.102z M84.977,299.29
			c-5.01,0-9.086-4.076-9.086-9.086v-17.102c0-4.318,3.03-7.935,7.075-8.854l5.607,35.042H84.977z M88.467,197.133
			c-2.799-17.49,2.187-35.25,13.679-48.728c11.493-13.477,28.242-21.207,45.954-21.207h61.88c17.712,0,34.461,7.729,45.954,21.207
			c11.492,13.477,16.479,31.238,13.68,48.728l-8.135,50.85h-6.785c-0.263,0-0.484-0.188-0.527-0.447l-6.169-37.017
			c-1.337-8.021-8.21-13.843-16.342-13.843H126.427c-8.132,0-15.005,5.822-16.342,13.844l-6.169,37.016
			c-0.044,0.259-0.265,0.447-0.527,0.447h-6.785L88.467,197.133z M107.969,319.031l-8.802-55.014h4.22
			c8.132,0,15.005-5.822,16.342-13.844l6.169-37.016c0.044-0.259,0.265-0.447,0.527-0.447h105.228c0.263,0,0.484,0.188,0.527,0.447
			l6.169,37.017c1.337,8.021,8.21,13.843,16.342,13.843h4.22l-6.161,38.51c-1.87,2.104-21.343,22.417-73.71,22.417
			c-4.427,0-8.017,3.589-8.017,8.017s3.589,8.017,8.017,8.017c33.609,0,55.601-7.707,69.003-15.148
			c-1.617,3.519-4.006,6.665-7.027,9.183l-34.32,28.6c-3.163,2.636-7.173,4.087-11.291,4.087h-32.732
			c-4.117,0-8.128-1.452-11.291-4.087l-34.32-28.6C112.2,330.958,108.969,325.282,107.969,319.031z M109.466,404.196
			c10.606-3.263,17.732-12.911,17.732-24.008v-15.858l13.92,11.601c6.039,5.032,13.695,7.804,21.555,7.804h32.732
			c7.861,0,15.516-2.772,21.555-7.804l13.92-11.602v15.858c0,11.097,7.126,20.745,17.732,24.008l4.047,1.245
			c-28.422,43.606-66.2,54.402-73.639,56.15c-7.513-1.723-45.08-12.315-73.604-56.149L109.466,404.196z M59.858,495.967H25.119
			c-5.01,0-9.086-4.076-9.086-9.086v-34.596c0-4.537,1.157-8.833,3.212-12.596l34.267,28.555c4.033,3.361,6.346,8.3,6.346,13.549
			V495.967z M282.188,481.794v14.172H75.891v-14.172c0-10.023-4.416-19.451-12.115-25.866l-32.762-27.302
			c1.123-0.529,2.289-0.997,3.505-1.371l55.007-16.924c35.591,57.965,86.007,66.991,88.194,67.355
			c0.436,0.073,0.876,0.109,1.318,0.109s0.882-0.036,1.318-0.109c2.187-0.365,52.605-9.39,88.194-67.355l55.007,16.925
			c1.216,0.374,2.381,0.842,3.505,1.371l-32.76,27.302C286.604,462.344,282.188,471.771,282.188,481.794z M342.046,486.881
			c0,5.01-4.076,9.086-9.086,9.086h-34.739v-14.172c0-5.25,2.313-10.189,6.346-13.549l34.267-28.555
			c2.055,3.762,3.212,8.058,3.212,12.596V486.881z"/>
            </g>
        </g>
    </symbol>

    <symbol id="logistic-icon" viewBox="0 0 612 612">
        <g>
            <path d="M12.57,385.084h316.849c4.735,0,8.61-3.875,8.61-8.609V119.809c0-14.266-11.564-25.83-25.83-25.83H29.791
		c-14.266,0-25.83,11.564-25.83,25.83v256.664C3.96,381.209,7.835,385.084,12.57,385.084z M76.417,212.128
		c0-5.902,4.784-10.687,10.687-10.687h84.528v-30.118c0-9.521,11.514-14.289,18.245-7.554l72.838,72.873
		c4.171,4.173,4.171,10.938,0,15.11l-72.838,72.861c-6.732,6.734-18.245,1.967-18.245-7.555v-30.125H87.103
		c-5.902,0-10.687-4.785-10.687-10.687V212.128z M113.48,454.221H8.61c-4.736,0-8.61-3.873-8.61-8.609v-26.174
		c0-4.736,3.874-8.611,8.61-8.611h128.634C124.673,421.762,115.977,437.002,113.48,454.221z M603.39,410.828h-20.922V293.817
		c0-13.689-4.133-27.121-11.796-38.486l-52.434-77.663c-12.83-18.942-34.183-30.307-57.085-30.307h-81.278
		c-9.558,0-17.221,7.749-17.221,17.22v246.247H229.543c12.657,10.934,21.353,26.174,23.85,43.395h140.343
		c4.994-34.182,34.44-60.615,70-60.615s64.919,26.434,69.913,60.615h69.741c4.736,0,8.61-3.875,8.61-8.611v-26.174
		C612,414.703,608.126,410.828,603.39,410.828z M517.634,270.828h-107.28c-4.735,0-8.61-3.789-8.61-8.61v-59.495
		c0-4.735,3.875-8.61,8.61-8.61h65.351c2.841,0,5.424,1.377,7.06,3.616l41.931,59.582
		C528.654,262.994,524.608,270.828,517.634,270.828z M183.394,410.828c-29.532,0-53.555,24.021-53.555,53.641
		c0,29.531,24.022,53.553,53.555,53.553c29.618,0,53.554-24.021,53.554-53.553C236.947,434.85,213.012,410.828,183.394,410.828z
		 M183.394,491.246c-14.81,0-26.777-12.055-26.777-26.777c0-14.811,11.968-26.777,26.777-26.777
		c14.809,0,26.777,11.967,26.777,26.777C210.171,479.191,198.202,491.246,183.394,491.246z M463.735,410.828
		c-29.618,0-53.555,24.021-53.555,53.641c0,29.531,23.937,53.553,53.555,53.553c29.532,0,53.554-24.021,53.554-53.553
		C517.29,434.85,493.269,410.828,463.735,410.828z M463.735,491.246c-14.81,0-26.777-12.055-26.777-26.777
		c0-14.811,11.968-26.777,26.777-26.777c14.809,0,26.777,11.967,26.777,26.777C490.513,479.191,478.545,491.246,463.735,491.246z"/>
        </g>
    </symbol>

</svg>
